<?xml version="1.0" encoding="utf-8"?>
<svg viewBox="0 0 24 24" fill="none" xmlns="http://www.w3.org/2000/svg">
  <g transform="matrix(1.1844489574432373, 0, 0, 1.1085549592971802, -0.49769800901412964, -2.911298990249634)" style="">
    <path id="Vector" d="M 15.696 18.521 C 14.591 18.521 13.696 19.416 13.696 20.521 C 13.696 21.626 14.591 22.521 15.696 22.521 C 16.801 22.521 17.696 21.626 17.696 20.521 C 17.696 19.416 16.801 18.521 15.696 18.521 Z M 15.696 18.521 L 7.99 18.521 C 7.529 18.521 7.298 18.521 7.108 18.439 C 6.941 18.367 6.795 18.25 6.69 18.101 C 6.571 17.935 6.523 17.712 6.429 17.271 L 3.967 5.786 C 3.871 5.335 3.822 5.109 3.702 4.941 C 3.596 4.792 3.451 4.675 3.283 4.603 C 3.093 4.521 2.864 4.521 2.403 4.521 L 1.696 4.521 M 18.894 7.671 C 19.106 7.803 19.261 8.01 19.329 8.25 C 19.406 8.524 19.307 8.871 19.107 9.564 L 17.722 14.364 C 17.603 14.779 17.543 14.986 17.422 15.14 C 17.315 15.276 17.173 15.382 17.013 15.447 C 16.832 15.521 16.617 15.521 16.188 15.521 L 6.426 15.521 M 6.696 22.521 C 5.591 22.521 4.696 21.626 4.696 20.521 C 4.696 19.416 5.591 18.521 6.696 18.521 C 7.801 18.521 8.696 19.416 8.696 20.521 C 8.696 21.626 7.801 22.521 6.696 22.521 Z" stroke="#000000" stroke-width="2" stroke-linecap="round" stroke-linejoin="round" style="" transform="matrix(1, 0.000852000085, -0.000852000085, 1, 0.011519893067, -0.008967774272)"/>
    <text style="fill: rgb(51, 51, 51); font-family: Arial, sans-serif; font-size: 13.2329px; line-height: 22.5841px; white-space: pre;" transform="matrix(1.049842, 0, 0, 1.022538, 0.03437, -1.671846)" x="6.847" y="15.621" dx="0.16" dy="-0.725">+</text>
  </g>
</svg>